# Blender 4.0.1
# www.blender.org
o Tree_Spruce_small_02
v 0.003209 -0.499895 -0.118724
v 0.000453 -0.299540 -0.071152
v 0.080366 -0.498944 -0.079985
v 0.046287 -0.299540 -0.041031
v 0.099674 -0.499789 -0.005055
v 0.063098 -0.299540 -0.002907
v 0.090448 -0.500000 0.085790
v 0.040515 -0.299540 0.037749
v 0.000958 -0.499511 0.098967
v 0.000888 -0.299540 0.048927
v -0.066204 -0.498771 0.080329
v -0.044083 -0.299540 0.029081
v -0.120470 -0.500000 0.007271
v -0.058490 -0.299540 -0.006702
v -0.080291 -0.498643 -0.073364
v -0.042574 -0.299540 -0.048113
v 0.000420 -0.436996 -0.085025
v 0.060566 -0.444247 -0.061275
v 0.081931 -0.452590 -0.006982
v 0.060490 -0.448015 0.052889
v 0.005305 -0.445830 0.080076
v -0.055319 -0.435858 0.050356
v -0.072739 -0.414259 -0.004280
v -0.059526 -0.424811 -0.061470
v -0.014559 0.060859 -0.058520
v 0.022283 0.060859 -0.034308
v 0.035795 0.060859 -0.003665
v 0.017644 0.060859 0.029015
v -0.014209 0.060859 0.038000
v -0.050356 0.060859 0.022048
v -0.061936 0.060859 -0.006715
v -0.049143 0.060859 -0.040001
v -0.001339 0.268717 -0.051959
v 0.030832 0.268717 -0.030817
v 0.042631 0.268717 -0.004058
v 0.026781 0.268717 0.024478
v -0.001034 0.268717 0.032324
v -0.032598 0.268717 0.018394
v -0.042710 0.268717 -0.006722
v -0.031539 0.268717 -0.035788
v -0.003171 0.453107 -0.041135
v 0.021294 0.453107 -0.025057
v 0.030267 0.453107 -0.004707
v 0.018213 0.453107 0.016994
v -0.002939 0.453107 0.022961
v -0.026943 0.453107 0.012367
v -0.034633 0.453107 -0.006733
v -0.026138 0.453107 -0.028837
v 0.002522 0.602295 -0.032632
v 0.020934 0.602295 -0.020532
v 0.027687 0.602295 -0.005217
v 0.018615 0.602295 0.011115
v 0.002696 0.602295 0.015605
v -0.015369 0.602295 0.007633
v -0.021156 0.602295 -0.006742
v -0.014763 0.602295 -0.023377
v 0.006414 0.850383 -0.006768
v -0.014327 -0.163964 -0.451777
v -0.023244 0.253763 -0.124663
v 0.320517 -0.086105 -0.346236
v 0.066648 0.258561 -0.088114
v 0.424579 -0.164804 -0.001335
v 0.105298 0.260378 0.000785
v 0.322885 -0.103014 0.332215
v 0.059257 0.248625 0.080205
v -0.014812 -0.182518 0.447384
v -0.022063 0.256726 0.127015
v -0.339633 -0.137993 0.330143
v -0.107960 0.248952 0.086111
v -0.465181 -0.180429 -0.000931
v -0.150283 0.252476 -0.000493
v -0.341603 -0.121730 -0.316245
v -0.119465 0.259967 -0.097440
v -0.010679 -0.195037 -0.412894
v -0.019750 0.222673 -0.085779
v 0.294485 -0.119839 -0.320255
v 0.040548 0.224827 -0.062202
v 0.386657 -0.197203 -0.003017
v 0.067369 0.227980 -0.000785
v 0.296128 -0.135966 0.305967
v 0.032449 0.215674 0.054010
v -0.013747 -0.214914 0.409435
v -0.021079 0.224327 0.089068
v -0.311431 -0.168929 0.302972
v -0.079817 0.218015 0.058881
v -0.425381 -0.210524 0.000028
v -0.110482 0.222382 0.000494
v -0.312551 -0.150593 -0.287722
v -0.090439 0.231104 -0.068891
v -0.031421 0.191985 -0.335928
v -0.010176 0.461671 -0.087801
v 0.220325 0.137974 -0.245639
v 0.056516 0.465446 -0.066702
v 0.320242 0.194113 0.000811
v 0.087475 0.466799 -0.000446
v 0.231260 0.137762 0.244796
v 0.057343 0.466623 0.067306
v -0.006070 0.188181 0.337347
v -0.009990 0.465920 0.093217
v -0.259209 0.133908 0.245835
v -0.077147 0.470056 0.067313
v -0.356207 0.184743 -0.000552
v -0.098897 0.464812 -0.000544
v -0.256548 0.137235 -0.238284
v -0.076019 0.468318 -0.066350
v -0.017619 0.385176 -0.274225
v -0.012476 0.646129 -0.083778
v 0.187053 0.432101 -0.191978
v 0.044294 0.646756 -0.056982
v 0.281411 0.404795 0.003045
v 0.069038 0.649604 0.000264
v 0.182227 0.440951 0.197145
v 0.040536 0.642591 0.053245
v -0.002405 0.405716 0.271004
v -0.012310 0.641563 0.077768
v -0.180259 0.437522 0.172185
v -0.073216 0.644677 0.061103
v -0.278208 0.383262 0.007875
v -0.087937 0.636095 0.000349
v -0.194836 0.428450 -0.178458
v -0.070063 0.641897 -0.057895
v -0.010795 0.632457 -0.174464
v 0.123339 0.596170 -0.126216
v 0.158544 0.627240 0.005329
v 0.113363 0.606323 0.125212
v -0.006811 0.959627 -0.000350
v -0.010698 0.637498 0.169775
v -0.138069 0.607325 0.133512
v -0.183677 0.642357 0.000540
v -0.146923 0.610128 -0.133748
v 0.080923 0.713692 -0.000019
v -0.103172 0.726893 -0.000730
v 0.049404 0.723718 -0.057926
v 0.051932 0.722134 0.060804
v -0.084537 0.725053 0.073048
v -0.009363 0.730463 -0.095060
v -0.008886 0.725268 0.098427
v -0.074189 0.732221 -0.062236
v -0.031956 0.160242 -0.297421
v -0.010633 0.429926 -0.049295
v 0.192721 0.106680 -0.218262
v 0.028911 0.434152 -0.039327
v 0.280623 0.163778 0.001735
v 0.047856 0.436465 0.000446
v 0.203675 0.106018 0.217924
v 0.029798 0.434879 0.040395
v -0.006781 0.156662 0.298660
v -0.010628 0.434399 0.054531
v -0.233357 0.100642 0.219081
v -0.051265 0.436790 0.040590
v -0.318572 0.151985 0.000551
v -0.061262 0.432053 0.000544
v -0.230574 0.104537 -0.210956
v -0.049985 0.435619 -0.039082
v -0.015650 0.354510 -0.234902
v -0.010700 0.615452 -0.044452
v 0.161594 0.399604 -0.163935
v 0.018730 0.614251 -0.029042
v 0.244664 0.371031 0.002440
v 0.032290 0.615841 -0.000264
v 0.157366 0.407913 0.169196
v 0.015563 0.609549 0.025401
v -0.000295 0.374635 0.232014
v -0.010371 0.610464 0.038783
v -0.150980 0.408449 0.144109
v -0.044058 0.615601 0.032907
v -0.237867 0.353889 0.007154
v -0.047596 0.606722 -0.000349
v -0.165737 0.398534 -0.151093
v -0.041120 0.611983 -0.030361
v -0.013911 0.600738 -0.136059
v 0.092686 0.566105 -0.100775
v 0.118467 0.597502 0.005259
v 0.082598 0.576733 0.099356
v -0.008526 0.909754 0.000291
v -0.013282 0.607198 0.130204
v -0.110187 0.577200 0.105127
v -0.145345 0.610403 0.000019
v -0.120192 0.577799 -0.106711
v 0.037318 0.689422 0.000424
v -0.060220 0.701553 0.001198
v 0.015286 0.701787 -0.028847
v 0.017752 0.700081 0.031891
v -0.053634 0.699678 0.043186
v -0.012717 0.704812 -0.052381
v -0.013395 0.700849 0.055135
v -0.042895 0.707476 -0.032252
vn 0.4563 0.1295 -0.8803
vn 0.9203 0.1324 -0.3682
vn 0.9102 0.1316 0.3926
vn 0.3728 0.1740 0.9114
vn -0.4046 0.1762 0.8974
vn -0.9256 0.1276 0.3563
vn -0.9460 0.1364 -0.2941
vn -0.3975 0.1200 -0.9097
vn 0.0271 -0.9996 -0.0033
vn -0.3818 0.3371 -0.8605
vn -0.8581 0.3691 -0.3570
vn -0.7538 0.4348 0.4926
vn -0.2944 0.4019 0.8671
vn 0.2448 0.4739 0.8459
vn 0.8657 0.4734 0.1624
vn 0.8930 0.3710 -0.2547
vn 0.3892 0.4363 -0.8112
vn -0.0008 -0.9997 0.0261
vn -0.0023 -0.9999 -0.0107
vn -0.0045 -1.0000 -0.0054
vn -0.0106 -0.9999 -0.0076
vn -0.0059 -1.0000 -0.0029
vn -0.0102 -0.9999 -0.0016
vn -0.0111 -0.9999 0.0002
vn 0.9129 0.0683 -0.4025
vn -0.4037 0.0108 0.9148
vn -0.4720 0.0112 -0.8815
vn 0.5484 0.0521 -0.8346
vn 0.8722 0.0671 0.4845
vn -0.9276 -0.0089 0.3735
vn 0.2713 0.0405 0.9617
vn -0.9334 -0.0089 -0.3587
vn -0.4032 0.0505 0.9137
vn -0.4033 0.0464 0.9139
vn -0.4034 0.0424 0.9140
vn 0.8739 -0.0278 0.4854
vn 0.5492 -0.0085 -0.8357
vn -0.4713 0.0578 -0.8801
vn -0.4715 0.0472 -0.8806
vn -0.4714 0.0524 -0.8804
vn -0.9242 0.0855 0.3721
vn 0.2715 0.0091 0.9624
vn 0.9146 -0.0308 -0.4033
vn -0.9300 0.0860 -0.3574
vn -0.9327 0.0408 -0.3585
vn -0.4034 0.0422 0.9141
vn 0.8726 0.0602 0.4847
vn 0.5484 0.0544 -0.8345
vn -0.4715 0.0470 -0.8806
vn -0.9269 0.0406 0.3732
vn 0.2711 0.0516 0.9612
vn 0.9134 0.0598 -0.4027
vn -0.9244 0.0835 0.3722
vn 0.2713 0.0372 0.9618
vn 0.9149 0.0144 -0.4034
vn -0.9301 0.0840 -0.3575
vn -0.4030 0.0602 0.9132
vn 0.8741 0.0168 0.4855
vn 0.5490 0.0267 -0.8354
vn -0.4710 0.0681 -0.8795
vn 0.5475 0.0783 -0.8331
vn -0.4697 0.0988 -0.8773
vn -0.9227 0.1026 0.3715
vn 0.2706 0.0824 0.9592
vn 0.9124 0.0757 -0.4023
vn -0.9285 0.1031 -0.3568
vn -0.4022 0.0882 0.9113
vn 0.8716 0.0778 0.4841
vn 0.1325 0.6319 -0.7637
vn 0.7701 0.6217 -0.1432
vn 0.7538 0.6279 0.1936
vn 0.1899 0.6175 0.7633
vn -0.2432 0.5913 0.7689
vn -0.7682 0.5876 0.2540
vn -0.7913 0.5765 -0.2038
vn -0.2300 0.5899 -0.7740
vn -0.1115 -0.6290 0.7694
vn -0.7758 -0.6190 0.1225
vn -0.7589 -0.6266 -0.1774
vn -0.1739 -0.6157 -0.7685
vn 0.2306 -0.5908 -0.7731
vn 0.7705 -0.5873 -0.2479
vn 0.7966 -0.5752 0.1858
vn 0.2135 -0.5891 0.7793
vn 0.3566 -0.7196 -0.5959
vn -0.2844 0.7256 0.6266
vn 0.6067 -0.7146 -0.3482
vn -0.6452 0.7194 0.2572
vn 0.6014 -0.7320 0.3201
vn -0.6326 0.7330 -0.2502
vn 0.3735 -0.7206 0.5841
vn -0.2885 0.7263 -0.6239
vn -0.3183 -0.7471 0.5835
vn 0.2330 0.7474 -0.6222
vn -0.5641 -0.7635 0.3143
vn 0.5897 0.7662 -0.2552
vn -0.5155 -0.7797 -0.3554
vn 0.5659 0.7857 0.2496
vn -0.3285 -0.7793 -0.5336
vn 0.2231 0.7794 0.5854
vn 0.3469 0.5990 -0.7217
vn 0.7045 0.5846 -0.4023
vn 0.7105 0.5929 0.3790
vn 0.3730 0.6008 0.7071
vn -0.3567 0.5978 0.7179
vn -0.7090 0.6087 0.3562
vn -0.7021 0.6075 -0.3715
vn -0.3841 0.6122 -0.6911
vn 0.2156 0.5932 -0.7757
vn 0.7196 0.6362 -0.2781
vn 0.7027 0.6513 0.2863
vn 0.2081 0.6413 0.7386
vn -0.2824 0.5845 0.7607
vn -0.7875 0.5697 0.2352
vn -0.7873 0.5816 -0.2047
vn -0.2971 0.5791 -0.7592
vn 0.4336 0.5870 -0.6837
vn 0.7250 0.6084 -0.3229
vn 0.7177 0.6095 0.3367
vn 0.4175 0.5856 0.6948
vn -0.3156 0.5711 0.7578
vn -0.7357 0.5894 0.3337
vn -0.7042 0.6321 -0.3233
vn -0.3272 0.6069 -0.7243
vn -0.4153 0.3514 -0.8391
vn -0.2960 0.3732 0.8793
vn 0.8576 0.3054 -0.4139
vn -0.8980 0.3714 0.2361
vn 0.8737 0.3122 0.3731
vn -0.8570 0.3554 -0.3731
vn 0.5088 0.3305 0.7949
vn 0.5322 0.3183 -0.7845
vn -0.3542 -0.5984 0.7186
vn -0.6953 -0.5836 0.4195
vn -0.7012 -0.5921 -0.3973
vn -0.3851 -0.6002 -0.7011
vn 0.3691 -0.5973 -0.7120
vn 0.7031 -0.6081 -0.3685
vn 0.6972 -0.6069 0.3816
vn 0.4047 -0.6114 0.6800
vn -0.2005 -0.5921 0.7805
vn -0.7227 -0.6364 0.2698
vn -0.7060 -0.6513 -0.2781
vn -0.1955 -0.6402 -0.7429
vn 0.2662 -0.5848 -0.7663
vn 0.7954 -0.5683 -0.2107
vn 0.7949 -0.5800 0.1781
vn 0.2844 -0.5789 0.7642
vn -0.4568 -0.5819 0.6728
vn -0.7218 -0.6030 0.3399
vn -0.7104 -0.6034 -0.3622
vn -0.4356 -0.5816 -0.6870
vn 0.3323 -0.5654 -0.7549
vn 0.7329 -0.5849 -0.3475
vn 0.7017 -0.6301 0.3326
vn 0.3496 -0.6027 0.7173
vn 0.5275 -0.2216 0.8202
vn 0.2823 -0.2497 -0.9262
vn -0.8205 -0.1704 0.5456
vn 0.9577 -0.2385 -0.1609
vn -0.8615 -0.1795 -0.4749
vn 0.8819 -0.2172 0.4183
vn -0.5900 -0.1921 -0.7842
vn -0.6443 -0.1780 0.7438
vn 0.0732 -0.7360 -0.6730
vn -0.2370 0.7504 0.6171
vn 0.6547 -0.7515 -0.0812
vn -0.5938 0.7638 0.2531
vn 0.6658 -0.7440 0.0556
vn -0.6006 0.7573 -0.2564
vn 0.0932 -0.7363 0.6702
vn -0.2383 0.7482 -0.6192
vn -0.0784 -0.7234 0.6860
vn 0.2741 0.7341 -0.6213
vn -0.6932 -0.7114 0.1153
vn 0.6449 0.7200 -0.2563
vn -0.6814 -0.7198 -0.1325
vn 0.6357 0.7287 0.2548
vn -0.1030 -0.7304 -0.6752
vn 0.2724 0.7381 0.6173
vn 0.3976 -0.7345 -0.5500
vn -0.2885 0.7467 0.5993
vn 0.5821 -0.7103 -0.3956
vn -0.6505 0.7162 0.2527
vn 0.5626 -0.7041 0.4333
vn -0.6537 0.7124 -0.2554
vn 0.3744 -0.7299 0.5719
vn -0.2933 0.7382 -0.6074
vn -0.4277 -0.7632 0.4844
vn 0.2098 0.7746 -0.5967
vn -0.4112 -0.7471 0.5222
vn 0.5580 0.7896 -0.2551
vn -0.4905 -0.7634 -0.4204
vn 0.5697 0.7812 0.2551
vn -0.4592 -0.7535 -0.4706
vn 0.2066 0.7704 0.6032
vn 0.0252 -0.7250 -0.6883
vn 0.6520 -0.7576 0.0318
vn 0.6216 -0.7788 0.0837
vn 0.0212 -0.7428 0.6691
vn 0.0191 -0.7434 0.6685
vn 0.0169 -0.7440 0.6679
vn -0.6791 -0.7337 0.0201
vn -0.7048 -0.7093 0.0098
vn -0.0631 -0.7245 -0.6863
vt 0.552330 0.562208
vt 0.552331 0.605999
vt 0.553982 0.605999
vt 0.554496 0.559898
vt 0.554587 0.605999
vt 0.555265 0.557239
vt 0.553774 0.605999
vt 0.554493 0.558697
vt 0.552347 0.605999
vt 0.552506 0.559394
vt 0.550727 0.605999
vt 0.550322 0.562570
vt 0.550208 0.605999
vt 0.549695 0.569451
vt 0.550781 0.605999
vt 0.550171 0.566090
vt 0.549930 0.542527
vt 0.547976 0.542136
vt 0.549423 0.542568
vt 0.552430 0.542169
vt 0.552349 0.542292
vt 0.555572 0.542136
vt 0.555904 0.542202
vt 0.555209 0.542472
vt 0.553117 0.720818
vt 0.553604 0.720818
vt 0.551803 0.720818
vt 0.550501 0.720818
vt 0.550545 0.720818
vt 0.551790 0.720818
vt 0.552950 0.720818
vt 0.550084 0.720818
vt 0.552277 0.787039
vt 0.551141 0.787039
vt 0.553850 0.787039
vt 0.553279 0.787039
vt 0.552266 0.787039
vt 0.553425 0.787039
vt 0.551179 0.787039
vt 0.550776 0.787039
vt 0.551067 0.845784
vt 0.551373 0.845784
vt 0.552209 0.845784
vt 0.551344 0.845784
vt 0.553405 0.845784
vt 0.552971 0.845784
vt 0.552200 0.845784
vt 0.553081 0.845784
vt 0.551761 0.893313
vt 0.551553 0.893313
vt 0.552985 0.893313
vt 0.552412 0.893313
vt 0.553068 0.893313
vt 0.553312 0.893313
vt 0.551783 0.893313
vt 0.552405 0.893313
vt 0.552546 0.972351
vt 0.148796 0.566760
vt 0.148159 0.759077
vt 0.152567 0.760296
vt 0.167214 0.571853
vt 0.154393 0.760801
vt 0.174842 0.573963
vt 0.167214 0.571854
vt 0.143752 0.757858
vt 0.130379 0.561667
vt 0.141926 0.757353
vt 0.122750 0.559558
vt 0.149364 0.573491
vt 0.149797 0.765601
vt 0.154200 0.764773
vt 0.167762 0.570032
vt 0.156024 0.764430
vt 0.175383 0.568599
vt 0.149364 0.573491
vt 0.145394 0.766429
vt 0.130967 0.576950
vt 0.143570 0.766772
vt 0.123346 0.578383
vt 0.145394 0.766429
vt 0.148793 0.571087
vt 0.147908 0.737340
vt 0.151718 0.739034
vt 0.164714 0.578163
vt 0.153297 0.739736
vt 0.171309 0.581095
vt 0.144098 0.735647
vt 0.132871 0.564010
vt 0.142519 0.734945
vt 0.126277 0.561079
vt 0.132871 0.564010
vt 0.148271 0.528774
vt 0.148761 0.681768
vt 0.156765 0.682359
vt 0.166779 0.520471
vt 0.161157 0.666667
vt 0.174446 0.517033
vt 0.156947 0.678951
vt 0.148742 0.675983
vt 0.139767 0.673416
vt 0.129764 0.537075
vt 0.136663 0.681873
vt 0.122097 0.540514
vt 0.140717 0.688459
vt 0.129763 0.537075
vt 0.149309 0.959427
s 1
f 17/1/1 2/2/1 4/3/1 18/4/1
s 2
f 18/4/2 4/3/2 6/5/2 19/6/2
s 3
f 19/6/3 6/5/3 8/7/3 20/8/3
s 4
f 20/8/4 8/7/4 10/9/4 21/10/4
s 5
f 21/10/5 10/9/5 12/11/5 22/12/5
s 6
f 22/12/6 12/11/6 14/13/6 23/14/6
s 7
f 23/14/7 14/13/7 16/15/7 24/16/7
s 8
f 24/16/8 16/15/8 2/2/8 17/1/8
s 9
f 11/17/9 13/18/9 15/19/9
s 10
f 15/19/10 24/16/10 17/1/10 1/20/10
s 11
f 13/18/11 23/14/11 24/16/11 15/19/11
s 12
f 11/17/12 22/12/12 23/14/12 13/18/12
s 13
f 9/21/13 21/10/13 22/12/13 11/17/13
s 14
f 7/22/14 20/8/14 21/10/14 9/21/14
s 15
f 5/23/15 19/6/15 20/8/15 7/22/15
s 16
f 3/24/16 18/4/16 19/6/16 5/23/16
s 17
f 1/20/17 17/1/17 18/4/17 3/24/17
s 18
f 15/19/18 1/20/18 3/24/18
s 19
f 3/24/19 5/23/20 15/19/21
f 5/23/20 7/22/22 9/21/23
f 15/19/21 5/23/20 9/21/23
f 9/21/23 11/17/24 15/19/21
s 20
f 6/5/25 4/3/25 26/25/25 27/26/25
s 21
f 12/11/26 10/9/26 29/27/26 30/28/26
s 22
f 2/2/27 16/15/27 32/29/27 25/30/27
s 23
f 4/3/28 2/2/28 25/30/28 26/25/28
s 24
f 8/7/29 6/5/29 27/26/29 28/31/29
s 25
f 14/13/30 12/11/30 30/28/30 31/32/30
s 26
f 10/9/31 8/7/31 28/31/31 29/27/31
s 27
f 16/15/32 14/13/32 31/32/32 32/29/32
s 28
f 30/28/33 29/27/33 37/33/34 38/34/35
s 29
f 28/31/36 27/26/36 35/35/36 36/36/36
s 30
f 26/25/37 25/30/37 33/37/37 34/38/37
s 31
f 25/30/38 32/29/38 40/39/39 33/37/40
s 32
f 31/32/41 30/28/41 38/34/41 39/40/41
s 33
f 29/27/42 28/31/42 36/36/42 37/33/42
s 34
f 27/26/43 26/25/43 34/38/43 35/35/43
s 35
f 32/29/44 31/32/44 39/40/44 40/39/44
s 36
f 40/39/45 39/40/45 47/41/45 48/42/45
s 28
f 38/34/35 37/33/34 45/43/46 46/44/46
s 37
f 36/36/47 35/35/47 43/45/47 44/46/47
s 38
f 34/38/48 33/37/48 41/47/48 42/48/48
s 31
f 33/37/40 40/39/39 48/42/49 41/47/49
s 39
f 39/40/50 38/34/50 46/44/50 47/41/50
s 40
f 37/33/51 36/36/51 44/46/51 45/43/51
s 41
f 35/35/52 34/38/52 42/48/52 43/45/52
s 42
f 47/41/53 46/44/53 54/49/53 55/50/53
s 43
f 45/43/54 44/46/54 52/51/54 53/52/54
s 44
f 43/45/55 42/48/55 50/53/55 51/54/55
s 45
f 48/42/56 47/41/56 55/50/56 56/55/56
s 46
f 46/44/57 45/43/57 53/52/57 54/49/57
s 47
f 44/46/58 43/45/58 51/54/58 52/51/58
s 48
f 42/48/59 41/47/59 49/56/59 50/53/59
s 49
f 41/47/60 48/42/60 56/55/60 49/56/60
s 50
f 50/53/61 49/56/61 57/57/61
s 51
f 49/56/62 56/55/62 57/57/62
s 52
f 55/50/63 54/49/63 57/57/63
s 53
f 53/52/64 52/51/64 57/57/64
s 54
f 51/54/65 50/53/65 57/57/65
s 55
f 56/55/66 55/50/66 57/57/66
s 56
f 54/49/67 53/52/67 57/57/67
s 57
f 52/51/68 51/54/68 57/57/68
s 58
f 58/58/69 59/59/69 61/60/69 60/61/69
s 59
f 60/61/70 61/60/70 63/62/70 62/63/70
s 60
f 62/63/71 63/62/71 65/60/71 64/64/71
s 61
f 64/64/72 65/60/72 67/59/72 66/58/72
s 62
f 66/58/73 67/59/73 69/65/73 68/66/73
s 63
f 68/66/74 69/65/74 71/67/74 70/68/74
s 64
f 70/68/75 71/67/75 73/65/75 72/66/75
s 65
f 72/66/76 73/65/76 59/59/76 58/58/76
s 66
f 74/58/77 76/61/77 77/60/77 75/59/77
s 67
f 76/61/78 78/63/78 79/62/78 77/60/78
s 68
f 78/63/79 80/64/79 81/60/79 79/62/79
s 69
f 80/64/80 82/58/80 83/59/80 81/60/80
s 70
f 82/58/81 84/66/81 85/65/81 83/59/81
s 71
f 84/66/82 86/68/82 87/67/82 85/65/82
s 72
f 86/68/83 88/66/83 89/65/83 87/67/83
s 73
f 88/66/84 74/58/84 75/59/84 89/65/84
s 74
f 58/58/85 60/61/85 76/61/85 74/58/85
s 75
f 61/60/86 59/59/86 75/59/86 77/60/86
s 76
f 60/61/87 62/63/87 78/63/87 76/61/87
s 77
f 63/62/88 61/60/88 77/60/88 79/62/88
s 78
f 62/63/89 64/64/89 80/64/89 78/63/89
s 79
f 65/60/90 63/62/90 79/62/90 81/60/90
s 80
f 64/64/91 66/58/91 82/58/91 80/64/91
s 81
f 67/59/92 65/60/92 81/60/92 83/59/92
s 82
f 66/58/93 68/66/93 84/66/93 82/58/93
s 83
f 69/65/94 67/59/94 83/59/94 85/65/94
s 84
f 68/66/95 70/68/95 86/68/95 84/66/95
s 85
f 71/67/96 69/65/96 85/65/96 87/67/96
s 86
f 70/68/97 72/66/97 88/66/97 86/68/97
s 87
f 73/65/98 71/67/98 87/67/98 89/65/98
s 88
f 72/66/99 58/58/99 74/58/99 88/66/99
s 89
f 59/59/100 73/65/100 89/65/100 75/59/100
s 90
f 90/69/101 91/70/101 93/71/101 92/72/101
s 91
f 92/72/102 93/71/102 95/73/102 94/74/102
s 92
f 94/74/103 95/73/103 97/71/103 96/72/103
s 93
f 96/72/104 97/71/104 99/70/104 98/75/104
s 94
f 98/75/105 99/70/105 101/76/105 100/77/105
s 95
f 100/77/106 101/76/106 103/78/106 102/79/106
s 96
f 102/79/107 103/78/107 105/80/107 104/77/107
s 97
f 104/77/108 105/80/108 91/70/108 90/69/108
s 98
f 106/81/109 107/82/109 109/83/109 108/84/109
s 99
f 108/84/110 109/83/110 111/85/110 110/86/110
s 100
f 110/86/111 111/85/111 113/83/111 112/84/111
s 101
f 112/84/112 113/83/112 115/82/112 114/81/112
s 102
f 114/81/113 115/82/113 117/87/113 116/88/113
s 103
f 116/88/114 117/87/114 119/89/114 118/90/114
s 104
f 118/90/115 119/89/115 121/87/115 120/91/115
s 105
f 120/91/116 121/87/116 107/82/116 106/81/116
s 106
f 122/92/117 136/93/117 133/94/117 123/95/117
s 107
f 123/95/118 133/94/118 131/96/118 124/97/118
s 108
f 124/97/119 131/96/119 134/98/119 125/95/119
s 109
f 125/95/120 134/98/120 137/99/120 127/92/120
s 110
f 127/92/121 137/99/121 135/100/121 128/101/121
s 111
f 128/101/122 135/100/122 132/102/122 129/103/122
s 112
f 129/103/123 132/102/123 138/104/123 130/105/123
s 113
f 130/105/124 138/104/124 136/93/124 122/92/124
s 114
f 136/93/125 138/104/125 126/106/125
s 115
f 135/100/126 137/99/126 126/106/126
s 116
f 131/96/127 133/94/127 126/106/127
s 117
f 132/102/128 135/100/128 126/106/128
s 118
f 134/98/129 131/96/129 126/106/129
s 119
f 138/104/130 132/102/130 126/106/130
s 120
f 137/99/131 134/98/131 126/106/131
s 121
f 133/94/132 136/93/132 126/106/132
s 122
f 139/69/133 141/72/133 142/71/133 140/70/133
s 123
f 141/72/134 143/74/134 144/73/134 142/71/134
s 124
f 143/74/135 145/72/135 146/71/135 144/73/135
s 125
f 145/72/136 147/75/136 148/70/136 146/71/136
s 126
f 147/75/137 149/77/137 150/76/137 148/70/137
s 127
f 149/77/138 151/79/138 152/78/138 150/76/138
s 128
f 151/79/139 153/77/139 154/80/139 152/78/139
s 129
f 153/77/140 139/69/140 140/70/140 154/80/140
s 130
f 155/81/141 157/84/141 158/83/141 156/82/141
s 131
f 157/84/142 159/86/142 160/85/142 158/83/142
s 132
f 159/86/143 161/84/143 162/83/143 160/85/143
s 133
f 161/84/144 163/81/144 164/82/144 162/83/144
s 134
f 163/81/145 165/88/145 166/87/145 164/82/145
s 135
f 165/88/146 167/90/146 168/89/146 166/87/146
s 136
f 167/90/147 169/91/147 170/87/147 168/89/147
s 137
f 169/91/148 155/81/148 156/82/148 170/87/148
s 138
f 171/92/149 172/95/149 182/94/149 185/93/149
s 139
f 172/95/150 173/97/150 180/96/150 182/94/150
s 140
f 173/97/151 174/95/151 183/98/151 180/96/151
s 141
f 174/95/152 176/92/152 186/99/152 183/98/152
s 142
f 176/92/153 177/101/153 184/100/153 186/99/153
s 143
f 177/101/154 178/103/154 181/102/154 184/100/154
s 144
f 178/103/155 179/105/155 187/104/155 181/102/155
s 145
f 179/105/156 171/92/156 185/93/156 187/104/156
s 146
f 185/93/157 175/106/157 187/104/157
s 147
f 184/100/158 175/106/158 186/99/158
s 148
f 180/96/159 175/106/159 182/94/159
s 149
f 181/102/160 175/106/160 184/100/160
s 150
f 183/98/161 175/106/161 180/96/161
s 151
f 187/104/162 175/106/162 181/102/162
s 152
f 186/99/163 175/106/163 183/98/163
s 153
f 182/94/164 175/106/164 185/93/164
s 154
f 90/69/165 92/72/165 141/72/165 139/69/165
s 155
f 93/71/166 91/70/166 140/70/166 142/71/166
s 156
f 92/72/167 94/74/167 143/74/167 141/72/167
s 157
f 95/73/168 93/71/168 142/71/168 144/73/168
s 158
f 94/74/169 96/72/169 145/72/169 143/74/169
s 159
f 97/71/170 95/73/170 144/73/170 146/71/170
s 160
f 96/72/171 98/75/171 147/75/171 145/72/171
s 161
f 99/70/172 97/71/172 146/71/172 148/70/172
s 162
f 98/75/173 100/77/173 149/77/173 147/75/173
s 163
f 101/76/174 99/70/174 148/70/174 150/76/174
s 164
f 100/77/175 102/79/175 151/79/175 149/77/175
s 165
f 103/78/176 101/76/176 150/76/176 152/78/176
s 166
f 102/79/177 104/77/177 153/77/177 151/79/177
s 167
f 105/80/178 103/78/178 152/78/178 154/80/178
s 168
f 104/77/179 90/69/179 139/69/179 153/77/179
s 169
f 91/70/180 105/80/180 154/80/180 140/70/180
s 170
f 106/81/181 108/84/181 157/84/181 155/81/181
s 171
f 109/83/182 107/82/182 156/82/182 158/83/182
s 172
f 108/84/183 110/86/183 159/86/183 157/84/183
s 173
f 111/85/184 109/83/184 158/83/184 160/85/184
s 174
f 110/86/185 112/84/185 161/84/185 159/86/185
s 175
f 113/83/186 111/85/186 160/85/186 162/83/186
s 176
f 112/84/187 114/81/187 163/81/187 161/84/187
s 177
f 115/82/188 113/83/188 162/83/188 164/82/188
s 178
f 114/81/189 116/88/189 165/88/189 163/81/189
s 179
f 117/87/190 115/82/190 164/82/190 166/87/190
s 180
f 116/88/191 118/90/191 167/90/191 165/88/191
s 181
f 119/89/192 117/87/192 166/87/192 168/89/192
s 182
f 118/90/193 120/91/193 169/91/193 167/90/193
s 183
f 121/87/194 119/89/194 168/89/194 170/87/194
s 184
f 120/91/195 106/81/195 155/81/195 169/91/195
s 185
f 107/82/196 121/87/196 170/87/196 156/82/196
s 186
f 122/92/197 123/95/197 172/95/197 171/92/197
s 187
f 123/95/198 124/97/198 173/97/198 172/95/198
s 188
f 124/97/199 125/95/199 174/95/199 173/97/199
s 189
f 125/95/200 127/92/201 176/92/201 174/95/200
f 127/92/201 128/101/202 177/101/202 176/92/201
s 190
f 128/101/203 129/103/203 178/103/203 177/101/203
s 191
f 129/103/204 130/105/204 179/105/204 178/103/204
s 192
f 130/105/205 122/92/205 171/92/205 179/105/205
