# Blender 4.0.1
# www.blender.org
o BUILDING_1
v -0.489973 -0.499167 0.431419
v -0.489973 1.545229 0.431419
v -0.489973 -0.499167 -0.431419
v -0.489973 1.545229 -0.431419
v 0.489973 -0.499167 0.431419
v 0.489973 1.545229 0.431419
v 0.489973 -0.499167 -0.431419
v 0.489973 1.545229 -0.431419
vn -1.0000 -0.0000 -0.0000
vn -0.0000 -0.0000 -1.0000
vn 1.0000 -0.0000 -0.0000
vn -0.0000 -0.0000 1.0000
vn -0.0000 -1.0000 -0.0000
vn -0.0000 1.0000 -0.0000
vt 0.347154 0.493150
vt 0.114057 0.493149
vt 0.114057 0.006850
vt 0.347154 0.006851
vt 0.590974 0.493150
vt 0.357877 0.493149
vt 0.357877 0.006850
vt 0.590974 0.006851
vt 0.347154 0.993150
vt 0.114057 0.993150
vt 0.114057 0.506850
vt 0.347154 0.506851
vt 0.590974 0.993150
vt 0.357877 0.993149
vt 0.357877 0.506850
vt 0.590974 0.506850
vt 0.834794 0.006851
vt 0.834794 0.493150
vt 0.601697 0.493149
vt 0.601697 0.006850
vt 0.834794 0.506851
vt 0.834794 0.993150
vt 0.601697 0.993150
vt 0.601697 0.506850
s 0
f 1/1/1 2/2/1 4/3/1 3/4/1
f 3/5/2 4/6/2 8/7/2 7/8/2
f 7/9/3 8/10/3 6/11/3 5/12/3
f 5/13/4 6/14/4 2/15/4 1/16/4
f 3/17/5 7/18/5 5/19/5 1/20/5
f 8/21/6 4/22/6 2/23/6 6/24/6
