# Blender 4.0.1
# www.blender.org
mtllib residential_brick_2.mtl
o building_1
v 0.300300 -0.490000 0.300300
v 0.300300 0.410900 0.300300
v -0.300300 0.410900 0.300300
v -0.300300 -0.490000 0.300300
v -0.300300 0.410900 -0.300300
v -0.300300 -0.490000 -0.300300
v -0.320320 0.460950 0.320320
v 0.320320 0.460950 0.320320
v 0.346240 0.497123 0.346240
v -0.346240 0.497123 0.346240
v -0.307883 0.410900 -0.307883
v 0.307883 0.410900 -0.307883
v 0.300300 0.410900 -0.300300
v -0.320320 0.423337 0.320320
v 0.320320 0.423337 0.320320
v 0.320320 0.423337 -0.320320
v 0.320320 0.460950 -0.320320
v -0.320320 0.423337 -0.320320
v -0.320320 0.460950 -0.320320
v -0.346240 0.497123 -0.346240
v 0.346240 0.497123 -0.346240
v 0.290290 0.476843 0.290290
v 0.290290 0.476843 -0.290290
v -0.290290 0.476843 -0.290290
v -0.290290 0.476843 0.290290
v -0.290290 0.534005 0.290290
v 0.290290 0.534005 0.290290
v -0.290290 0.534006 -0.290290
v 0.290290 0.534006 -0.290290
v 0.346240 0.534005 0.346240
v -0.346240 0.534005 0.346240
v -0.346240 0.534005 -0.346240
v 0.346240 0.534005 -0.346240
v -0.307883 0.410900 0.307883
v 0.307883 0.410900 0.307883
v 0.316677 0.414543 0.316677
v -0.316677 0.414543 0.316677
v 0.316677 0.414543 -0.316677
v -0.316677 0.414543 -0.316677
v 0.300300 -0.490000 -0.300300
v -0.085285 -0.300010 -0.270470
v -0.085285 -0.490000 -0.270470
v -0.085285 -0.490000 -0.260160
v -0.085285 -0.300010 -0.260160
v -0.215015 -0.490000 -0.270470
v -0.215015 -0.300010 -0.270470
v -0.215015 -0.300010 -0.260160
v -0.215015 -0.490000 -0.260160
v -0.088460 -0.271303 -0.270470
v -0.085285 -0.289800 -0.270470
v -0.085285 -0.289800 -0.258458
v -0.088460 -0.271303 -0.258458
v -0.202627 -0.254615 -0.270470
v -0.188277 -0.241373 -0.270470
v -0.188277 -0.241373 -0.258458
v -0.202627 -0.254615 -0.258458
v -0.150150 -0.229940 -0.270470
v -0.130105 -0.232870 -0.270470
v -0.130105 -0.232870 -0.258458
v -0.150150 -0.229940 -0.258458
v -0.097673 -0.254615 -0.270470
v -0.097673 -0.254615 -0.258458
v -0.211840 -0.271303 -0.270470
v -0.211840 -0.271303 -0.258458
v -0.170195 -0.232870 -0.270470
v -0.170195 -0.232870 -0.258458
v -0.112024 -0.241373 -0.270470
v -0.112024 -0.241373 -0.258458
v -0.215015 -0.289800 -0.270470
v -0.215015 -0.289800 -0.258458
v -0.150150 -0.219730 -0.300300
v -0.173349 -0.223159 -0.300300
v -0.225225 -0.289800 -0.270470
v -0.221551 -0.268147 -0.270470
v -0.150150 -0.219730 -0.270470
v -0.225225 -0.289800 -0.300300
v -0.221551 -0.268147 -0.300300
v -0.089413 -0.248614 -0.300300
v -0.078749 -0.268147 -0.300300
v -0.078749 -0.268147 -0.270470
v -0.089413 -0.248614 -0.270470
v -0.075075 -0.289800 -0.300300
v -0.075075 -0.490000 -0.300300
v -0.075075 -0.490000 -0.270470
v -0.075075 -0.289800 -0.270470
v -0.210887 -0.248614 -0.300300
v -0.210887 -0.248614 -0.270470
v -0.194278 -0.233112 -0.300300
v -0.194278 -0.233112 -0.270470
v -0.173349 -0.223159 -0.270470
v -0.225225 -0.490000 -0.300300
v -0.126951 -0.223159 -0.300300
v -0.126951 -0.223159 -0.270470
v -0.106022 -0.233112 -0.300300
v -0.106022 -0.233112 -0.270470
v -0.225225 -0.490000 -0.270470
vn -0.0000 -0.0000 1.0000
vn -1.0000 -0.0000 -0.0000
vn -0.0000 -0.5825 0.8129
vn -0.0000 -0.9756 -0.2197
vn -0.0000 -0.9603 -0.2791
vn -0.0000 -1.0000 -0.0000
vn -0.0000 -0.0779 0.9970
vn 0.9970 -0.0779 -0.0000
vn 1.0000 -0.0000 -0.0000
vn -0.0000 -0.0779 -0.9970
vn -0.0000 -0.0000 -1.0000
vn -0.0000 -0.5825 -0.8129
vn -0.0000 1.0000 -0.0000
vn -0.8129 -0.5825 -0.0000
vn 0.8129 -0.5825 -0.0000
vn -0.0000 -0.9603 0.2791
vn -0.0000 -0.9756 0.2197
vn -0.0000 -0.7042 0.7100
vn 0.2197 -0.9756 -0.0000
vn 0.2791 -0.9603 -0.0000
vn 0.7100 -0.7042 -0.0000
vn -0.0000 -0.7042 -0.7100
vn -0.2197 -0.9756 -0.0000
vn -0.7100 -0.7042 -0.0000
vn -0.9970 -0.0779 -0.0000
vn -0.9434 -0.3318 -0.0000
vn -0.9856 -0.1691 -0.0000
vn -0.9434 -0.3317 -0.0000
vn 0.7857 -0.6186 -0.0000
vn 0.5568 -0.8306 -0.0000
vn -0.2882 -0.9576 -0.0000
vn -0.7857 -0.6186 -0.0000
vn -0.7856 -0.6187 -0.0000
vn 0.9433 -0.3320 -0.0000
vn 0.2876 -0.9577 -0.0000
vn -0.5568 -0.8306 -0.0000
vn 0.9856 -0.1691 -0.0000
vn 0.9999 -0.0166 -0.0000
vn 0.9446 -0.3284 -0.0000
vn -0.7892 -0.6142 -0.0000
vn -0.9443 -0.3290 -0.0000
vn -0.9444 -0.3287 -0.0000
vn -0.9999 -0.0166 -0.0000
vn 0.7890 -0.6144 -0.0000
vn 0.5615 -0.8274 -0.0000
vn 0.5615 -0.8275 -0.0000
vn 0.2901 -0.9570 -0.0000
vn -0.2904 -0.9569 -0.0000
vn -0.5614 -0.8276 -0.0000
vt 0.410819 0.410092
vt 0.410819 0.000363
vt 0.683972 0.000363
vt 0.683972 0.410092
vt 0.683972 0.410817
vt 0.683972 0.820547
vt 0.410819 0.820547
vt 0.410819 0.410817
vt 0.738143 0.568286
vt 0.738143 0.276924
vt 0.758382 0.265136
vt 0.758382 0.580074
vt 0.278875 0.280479
vt 0.278888 0.547959
vt 0.274277 0.544647
vt 0.410819 0.835494
vt 0.689920 0.835494
vt 0.689920 0.851881
vt 0.410819 0.851881
vt 0.410819 0.866810
vt 0.690018 0.866810
vt 0.690018 0.883203
vt 0.410819 0.883202
vt 0.288463 0.553343
vt 0.288463 0.274242
vt 0.304850 0.274242
vt 0.304850 0.553343
vt 0.780072 0.568286
vt 0.780072 0.276924
vt 0.800311 0.265136
vt 0.800311 0.580074
vt 0.948745 0.264410
vt 0.684697 0.264410
vt 0.684697 0.000363
vt 0.948745 0.000363
vt 0.684697 0.265136
vt 0.710695 0.265136
vt 0.710695 0.529183
vt 0.684697 0.529183
vt 0.362894 0.274242
vt 0.362894 0.538289
vt 0.336897 0.538289
vt 0.336897 0.274242
vt 0.737418 0.529183
vt 0.711420 0.529183
vt 0.711420 0.265136
vt 0.737418 0.265136
vt 0.838775 0.265136
vt 0.838775 0.580075
vt 0.822001 0.580075
vt 0.822001 0.265136
vt 0.711420 0.844848
vt 0.711420 0.529908
vt 0.728194 0.529908
vt 0.728194 0.844848
vt 0.693921 0.844848
vt 0.693921 0.529908
vt 0.710695 0.529908
vt 0.710695 0.844848
vt 0.407116 0.274242
vt 0.407116 0.589181
vt 0.390343 0.589181
vt 0.390342 0.274242
vt 0.759107 0.568286
vt 0.759108 0.276924
vt 0.779346 0.265136
vt 0.779346 0.580074
vt 0.801036 0.568286
vt 0.801036 0.276924
vt 0.821275 0.265136
vt 0.821275 0.580074
vt 0.416203 0.825919
vt 0.683683 0.825906
vt 0.688067 0.830651
vt 0.412393 0.830655
vt 0.416205 0.857232
vt 0.683778 0.857218
vt 0.688164 0.861965
vt 0.412394 0.861969
vt 0.283619 0.276095
vt 0.283624 0.551769
vt 0.310201 0.548055
vt 0.310187 0.280481
vt 0.314934 0.276096
vt 0.314938 0.551866
vt 0.319779 0.274242
vt 0.319779 0.553441
vt 0.336172 0.274242
vt 0.336172 0.553441
vt 0.363620 0.274242
vt 0.389617 0.274242
vt 0.389617 0.538289
vt 0.363620 0.538289
vt 0.419515 0.821308
vt 0.000363 0.683971
vt 0.000363 0.274242
vt 0.273516 0.274242
vt 0.273516 0.683971
vt 0.689386 0.529908
vt 0.689386 0.616315
vt 0.684697 0.616315
vt 0.684697 0.529908
vt 0.689386 0.617040
vt 0.689386 0.703447
vt 0.684697 0.703447
vt 0.684697 0.617040
vt 0.335010 0.684696
vt 0.394011 0.684696
vt 0.394011 0.689385
vt 0.335010 0.689385
vt 0.407116 0.670143
vt 0.407116 0.678679
vt 0.401653 0.678679
vt 0.401653 0.670143
vt 0.407116 0.607111
vt 0.407116 0.615992
vt 0.401653 0.615992
vt 0.401653 0.607111
vt 0.407116 0.634293
vt 0.407116 0.643506
vt 0.401653 0.643506
vt 0.401653 0.634293
vt 0.407116 0.661474
vt 0.401653 0.661474
vt 0.407116 0.598442
vt 0.401653 0.598442
vt 0.407116 0.625080
vt 0.401653 0.625080
vt 0.407116 0.652593
vt 0.401653 0.652593
vt 0.407116 0.589906
vt 0.401653 0.589906
vt 0.728919 0.588909
vt 0.728919 0.529908
vt 0.734382 0.529908
vt 0.734382 0.588909
vt 0.373615 0.544648
vt 0.381204 0.540458
vt 0.389617 0.539014
vt 0.410094 0.000363
vt 0.123282 0.068652
vt 0.121722 0.058102
vt 0.360648 0.614957
vt 0.274241 0.614957
vt 0.274241 0.555956
vt 0.360648 0.555956
vt 0.306109 0.683971
vt 0.296261 0.682300
vt 0.297696 0.677883
vt 0.306109 0.679327
vt 0.315304 0.684696
vt 0.289858 0.974191
vt 0.289858 0.710143
vt 0.025811 0.974191
vt 0.315304 0.999637
vt 0.000365 0.999637
vt 0.280217 0.640711
vt 0.278884 0.649827
vt 0.274241 0.649827
vt 0.839500 0.459483
vt 0.839500 0.449494
vt 0.853066 0.449494
vt 0.853066 0.459483
vt 0.839500 0.376296
vt 0.839500 0.366175
vt 0.853066 0.366175
vt 0.853066 0.376296
vt 0.839500 0.356186
vt 0.839500 0.265136
vt 0.853066 0.265136
vt 0.853066 0.356186
vt 0.839500 0.439373
vt 0.853066 0.439373
vt 0.839500 0.429040
vt 0.853066 0.429040
vt 0.839500 0.418500
vt 0.853066 0.418500
vt 0.839500 0.407835
vt 0.853066 0.407835
vt 0.334285 0.752984
vt 0.320718 0.748341
vt 0.320718 0.689340
vt 0.839500 0.397169
vt 0.853066 0.397169
vt 0.839500 0.386629
vt 0.853066 0.386629
vt 0.839500 0.550534
vt 0.853066 0.550534
vt 0.679165 0.852606
vt 0.274241 0.285067
vt 0.419462 0.852641
vt 0.679095 0.821272
vt 0.389617 0.598015
vt 0.362393 0.568515
vt 0.381205 0.596571
vt 0.373615 0.592381
vt 0.363725 0.577631
vt 0.367592 0.585855
vt 0.363725 0.559398
vt 0.367592 0.551175
vt 0.410094 0.273516
vt 0.121723 0.079202
vt 0.000363 0.273514
vt 0.110147 0.096273
vt 0.101263 0.101122
vt 0.000364 0.102793
vt 0.091415 0.102793
vt 0.000363 0.034510
vt 0.000363 0.000365
vt 0.091415 0.034509
vt 0.101262 0.036180
vt 0.117197 0.088719
vt 0.110146 0.041030
vt 0.117196 0.048584
vt 0.025809 0.710142
vt 0.000363 0.684696
vt 0.310752 0.679327
vt 0.306109 0.620326
vt 0.397159 0.679327
vt 0.397159 0.683971
vt 0.397159 0.615682
vt 0.397159 0.620326
vt 0.310752 0.620326
vt 0.306109 0.615683
vt 0.296261 0.617354
vt 0.280327 0.629757
vt 0.287377 0.622204
vt 0.290107 0.625960
vt 0.297696 0.621770
vt 0.275801 0.639276
vt 0.284084 0.632487
vt 0.280327 0.669896
vt 0.275801 0.660378
vt 0.284084 0.667167
vt 0.280217 0.658943
vt 0.287377 0.677450
vt 0.290107 0.673693
vt 0.320718 0.684696
vt 0.334285 0.684696
vt 0.320718 0.752984
vt 0.316029 0.748341
vt 0.316029 0.689340
vt 0.305611 0.544797
vt 0.305575 0.285094
s 1
usemtl Material.003
f 1/1/1 2/2/1 3/3/1 4/4/1
f 4/5/2 3/6/2 5/7/2 6/8/2
f 7/9/3 8/10/3 9/11/3 10/12/3
f 11/13/4 12/14/5 13/15/6
f 14/16/7 15/17/7 8/18/1 7/19/1
f 15/20/8 16/21/8 17/22/9 8/23/9
f 16/24/10 18/25/10 19/26/11 17/27/11
f 17/28/12 19/29/12 20/30/12 21/31/12
f 22/32/13 23/33/13 24/34/13 25/35/13
f 25/36/11 26/37/11 27/38/11 22/39/11
f 28/40/9 26/41/9 25/42/9 24/43/9
f 29/44/2 23/45/2 22/46/2 27/47/2
f 10/48/1 9/49/1 30/50/1 31/51/1
f 21/52/11 20/53/11 32/54/11 33/55/11
f 20/56/2 10/57/2 31/58/2 32/59/2
f 9/60/9 21/61/9 33/62/9 30/63/9
f 19/64/14 7/65/14 10/66/14 20/67/14
f 8/68/15 17/69/15 21/70/15 9/71/15
f 34/72/16 35/73/17 36/74/18 37/75/18
f 37/75/18 36/74/18 15/17/7 14/16/7
f 35/76/19 12/77/20 38/78/21 36/79/21
f 36/79/21 38/78/21 16/21/8 15/20/8
f 12/14/5 11/13/4 39/80/22 38/81/22
f 38/81/22 39/80/22 18/25/10 16/24/10
f 11/82/23 34/83/23 37/84/24 39/85/24
f 39/85/24 37/84/24 14/86/25 18/87/25
f 18/87/25 14/86/25 7/88/2 19/89/2
f 28/90/1 24/91/1 23/92/1 29/93/1
f 35/73/17 34/72/16 3/94/6
f 40/95/9 13/96/9 2/97/9 1/98/9
f 41/99/2 42/100/2 43/101/2 44/102/2
f 45/103/9 46/104/9 47/105/9 48/106/9
f 46/107/6 41/108/6 44/109/6 47/110/6
f 49/111/26 50/112/27 51/113/27 52/114/28
f 53/115/29 54/116/30 55/117/30 56/118/29
f 57/119/6 58/120/31 59/121/31 60/122/6
f 61/123/32 49/111/26 52/114/28 62/124/33
f 63/125/34 53/115/29 56/118/29 64/126/34
f 65/127/35 57/119/6 60/122/6 66/128/35
f 67/129/36 61/123/32 62/124/33 68/130/36
f 69/131/37 63/125/34 64/126/34 70/132/37
f 50/133/13 69/134/13 70/135/13 51/136/13
f 54/116/30 65/127/35 66/128/35 55/117/30
f 58/120/31 67/129/36 68/130/36 59/121/31
f 62/137/11 52/138/11 51/139/11
f 5/140/11 71/141/11 72/142/11
f 48/143/11 47/144/11 44/145/11 43/146/11
f 73/147/11 74/148/11 63/149/11 69/150/11
f 31/151/13 27/152/13 26/153/13
f 29/154/13 30/155/13 33/156/13
f 58/157/11 57/158/11 75/159/11
f 76/160/38 77/161/39 74/162/39 73/163/38
f 78/164/40 79/165/41 80/166/42 81/167/40
f 82/168/43 83/169/2 84/170/2 85/171/43
f 77/161/39 86/172/44 87/173/44 74/162/39
f 86/172/44 88/174/45 89/175/46 87/173/44
f 88/174/45 72/176/47 90/177/47 89/175/46
f 72/176/47 71/178/6 75/179/6 90/177/47
f 91/180/13 45/181/13 42/182/13
f 71/178/6 92/183/48 93/184/48 75/179/6
f 92/183/48 94/185/49 95/186/49 93/184/48
f 79/165/41 82/168/43 85/171/43 80/166/42
f 94/185/49 78/164/40 81/167/40 95/186/49
f 91/187/9 76/160/38 73/163/38 96/188/9
f 12/77/20 35/76/19 13/189/6
f 13/15/6 5/190/6 11/13/4
f 2/191/6 13/189/6 35/76/19
f 3/94/6 2/192/6 35/73/17
f 51/139/11 70/193/11 60/194/11
f 70/193/11 64/195/11 56/196/11
f 60/194/11 70/193/11 66/197/11
f 56/196/11 55/198/11 70/193/11
f 55/198/11 66/197/11 70/193/11
f 60/194/11 59/199/11 51/139/11
f 59/199/11 68/200/11 51/139/11
f 68/200/11 62/137/11 51/139/11
f 5/140/11 13/201/11 92/202/11
f 13/201/11 40/203/11 78/204/11
f 78/204/11 40/203/11 79/205/11
f 40/203/11 83/206/11 82/207/11
f 40/203/11 82/207/11 79/205/11
f 91/208/11 6/209/11 76/210/11
f 6/209/11 5/140/11 77/211/11
f 76/210/11 6/209/11 77/211/11
f 13/201/11 78/204/11 94/212/11
f 86/213/11 77/211/11 5/140/11
f 13/201/11 94/212/11 92/202/11
f 88/214/11 86/213/11 5/140/11
f 72/142/11 88/214/11 5/140/11
f 5/140/11 92/202/11 71/141/11
f 28/215/13 32/216/13 31/151/13
f 31/151/13 30/155/13 27/152/13
f 26/153/13 28/215/13 31/151/13
f 33/156/13 32/216/13 28/215/13
f 29/154/13 27/152/13 30/155/13
f 33/156/13 28/215/13 29/154/13
f 73/147/11 69/150/11 46/217/11
f 69/150/11 50/218/11 46/217/11
f 45/219/11 96/220/11 46/217/11
f 96/220/11 73/147/11 46/217/11
f 84/221/11 42/222/11 41/223/11
f 41/223/11 46/217/11 50/218/11
f 84/221/11 41/223/11 85/224/11
f 41/223/11 50/218/11 85/224/11
f 80/225/11 85/224/11 50/218/11
f 95/226/11 81/227/11 61/228/11
f 81/227/11 80/225/11 49/229/11
f 75/159/11 93/230/11 58/157/11
f 93/230/11 95/226/11 67/231/11
f 58/157/11 93/230/11 67/231/11
f 89/232/11 90/233/11 54/234/11
f 90/233/11 75/159/11 65/235/11
f 74/148/11 87/236/11 63/149/11
f 87/236/11 89/232/11 53/237/11
f 53/237/11 89/232/11 54/234/11
f 53/237/11 63/149/11 87/236/11
f 80/225/11 50/218/11 49/229/11
f 65/235/11 54/234/11 90/233/11
f 81/227/11 49/229/11 61/228/11
f 57/158/11 65/235/11 75/159/11
f 95/226/11 61/228/11 67/231/11
f 84/238/13 83/239/13 42/182/13
f 83/239/13 91/180/13 42/182/13
f 91/180/13 96/240/13 45/181/13
f 45/181/13 48/241/13 43/242/13
f 45/181/13 43/242/13 42/182/13
f 5/243/6 3/244/6 34/83/23 11/82/23
