<?xml version="1.0" encoding="UTF-8" standalone="no"?>
<svg
   width="512pt"
   height="512pt"
   version="1.1"
   viewBox="0 0 512 512"
   id="svg332"
   sodipodi:docname="airplane_land.svg"
   inkscape:version="1.2 (dc2aeda, 2022-05-15)"
   xmlns:inkscape="http://www.inkscape.org/namespaces/inkscape"
   xmlns:sodipodi="http://sodipodi.sourceforge.net/DTD/sodipodi-0.dtd"
   xmlns="http://www.w3.org/2000/svg"
   xmlns:svg="http://www.w3.org/2000/svg">
  <defs
     id="defs336" />
  <sodipodi:namedview
     id="namedview334"
     pagecolor="#ffffff"
     bordercolor="#000000"
     borderopacity="0.25"
     inkscape:showpageshadow="2"
     inkscape:pageopacity="0.0"
     inkscape:pagecheckerboard="0"
     inkscape:deskcolor="#d1d1d1"
     inkscape:document-units="pt"
     showgrid="false"
     inkscape:zoom="0.34570313"
     inkscape:cx="341.33333"
     inkscape:cy="341.33333"
     inkscape:window-width="1214"
     inkscape:window-height="417"
     inkscape:window-x="0"
     inkscape:window-y="25"
     inkscape:window-maximized="0"
     inkscape:current-layer="svg332" />
  <path
     d="m 459.74353,387.40973 c -4.79206,-21.17148 -26.94431,-50.58854 -65.5978,-68.50358 -39.3406,-18.26599 -62.67866,-28.73753 -71.15262,-32.48237 L 288.60721,145.3482 c -2.80106,-11.3637 -10.75014,-20.7656 -21.48671,-25.41992 l -14.79968,-6.36969 0.003,-0.003 c -4.27856,-1.83679 -9.15922,-1.62967 -13.26928,0.56342 -4.1073,2.19033 -6.99645,6.12915 -7.85553,10.70602 L 209.73178,239.8241 107.95861,200.95515 92.216994,139.16392 C 91.07897,134.5953 87.88038,130.81122 83.56901,128.91943 l -16.020569,-7.09334 c -4.63763,-2.04128 -9.987883,-1.65732 -14.285678,1.02742 -4.297795,2.68474 -6.990896,7.32236 -7.192761,12.38561 l -2.73721,70.8019 c -0.604577,14.6859 3.201779,29.22048 10.929747,41.72141 7.731506,12.50448 19.025701,22.40652 32.432941,28.4334 20.10022,9.07926 54.39207,24.56631 92.98172,42.07003 l -72.46501,43.04795 0.003,0.003 c -4.05483,2.41406 -6.77277,6.55733 -7.369193,11.23621 -0.59941,4.67631 0.986063,9.37192 4.295113,12.73061 1.03309,1.02743 2.20415,1.90584 3.4803,2.60746 l 17.32681,9.59841 c 7.81961,4.3282 16.93478,5.70395 25.68212,3.88343 l 143.98532,-30.01951 -0.003,-0.003 c 0.37565,-0.12706 0.73749,-0.2845 1.08832,-0.46406 48.48348,22.04476 88.43219,40.3164 98.98434,45.44928 22.00587,10.69217 49.68486,7.57383 61.70355,-6.95793 4.50781,-6.39153 5.74807,-14.52609 3.35593,-21.96698 z m -312.35028,-1.7607 c -4.98843,1.04405 -10.18672,0.25965 -14.6504,-2.20419 l -16.29648,-9.03209 81.05706,-48.14407 c 24.3401,11.02655 49.68769,22.5362 73.94499,33.53525 z m 254.30388,16.22103 C 374.73034,388.7637 158.81656,291.16896 93.292504,261.57301 82.79062,256.84946 73.94634,249.08805 67.894639,239.29632 c -6.051842,-9.79725 -9.037601,-21.1799 -8.565183,-32.6846 l 2.687713,-69.79073 14.708671,6.23442 16.743584,65.84366 v 0.006 c 0.64085,2.51906 2.463843,4.57413 4.894533,5.5022 l 114.614943,43.77698 -0.003,0.003 c 2.21526,0.84524 4.69292,0.66567 6.76446,-0.49441 2.06881,-1.1573 3.51898,-3.17647 3.95535,-5.50773 l 23.11107,-123.61357 14.01797,6.02992 -0.003,0.003 c 6.13189,2.65716 10.67039,8.02976 12.26145,14.52093 l 35.332,144.89537 c 0.58832,2.42241 2.27052,4.43045 4.552,5.43588 0.2431,0.10493 24.26267,10.62881 74.46117,33.94679 33.54374,15.55635 52.91988,40.72228 56.73443,57.53544 1.18765,5.21492 0.35079,7.71461 -0.0221,8.18144 -6.54597,7.86627 -26.05829,10.72257 -42.44549,2.75418 z"
     fill="#fff"
     id="path330"
     style="fill:#ffffff" />
</svg>
