<?xml version="1.0" encoding="UTF-8"?>
<svg width="512pt" height="512pt" version="1.1" viewBox="0 0 512 512" xmlns="http://www.w3.org/2000/svg">
 <g fill="#fff">
  <path d="m256 486.6c127.01 0 230.6-103.2 230.6-230.6 0-127.41-103.2-230.2-230.6-230.2-127.41 0-230.2 103.2-230.2 230.2s103.2 230.6 230.2 230.6zm0-428.65c109.15 0 198.05 88.906 198.05 198.05 0 109.15-88.902 198.05-198.05 198.05s-198.05-88.902-198.05-198.05 88.902-198.05 198.05-198.05z"/>
  <path d="m277.83 371.1c3.1758 3.1758 7.1445 4.7617 11.512 4.7617 3.9688 0 8.3359-1.5859 11.512-4.7617 6.3516-6.3516 6.3516-16.668 0-23.02l-93.273-93.273 93.27-93.27c6.3516-6.3516 6.3516-16.668 0-23.02-6.3516-6.3516-16.668-6.3516-23.02 0l-104.78 104.78c-3.1758 3.1758-4.7617 7.1445-4.7617 11.512s1.5859 8.3359 4.7617 11.512z"/>
 </g>
</svg>
