<?xml version="1.0" encoding="UTF-8"?>
<svg width="512pt" height="512pt" version="1.1" viewBox="0 0 512 512" xmlns="http://www.w3.org/2000/svg">
 <g fill="#fff">
  <path d="m379.37 204.9s-1.6172-0.10156-4.4453-0.10156c-13.66 0-60.539 2.3125-90.254 32.031-23.574 23.551-29.902 59.004-31.539 80.262-5.2422-14.766-13.293-30.227-25.824-42.742-29.715-29.715-76.617-32.031-90.277-32.031-2.8047 0-4.4023 0.10156-4.4023 0.10156-5.2031 0.30859-9.3789 4.4648-9.668 9.668-0.14453 2.418-2.9062 59.863 31.949 94.68 29.715 29.738 79.133 32.051 93.551 32.051 2.9492 0 4.6094-0.10156 4.6094-0.10156 0.16406 0 0.30859-0.10156 0.47266-0.12109-2.9492 15.914-4.4023 31.5-4.4023 41.246 0 5.6523 4.5859 10.238 10.238 10.238s10.238-4.5859 10.238-10.238c0-24.574 8.1094-65.066 17.406-77.66 20.297-3.5625 49.215-12.125 70.02-32.934 34.836-34.816 32.094-92.262 31.949-94.68-0.26172-5.2031-4.418-9.3594-9.6211-9.668zm-209.98 127.39c-20.707-20.684-25.027-53.168-25.848-69.305 16.137 0.79688 48.539 5.0977 69.285 25.867 20.645 20.664 26.848 52.879 28.691 69.324-17.121-0.82031-51.363-5.1406-72.129-25.887zm90.828 11.918c0.85938 0.24609 1.6992 0.49219 2.6211 0.49219-0.61328 1.5352-1.2305 3.0117-1.7812 4.6484-0.24609-1.6367-0.51172-3.3594-0.83984-5.1406zm82.371-49.438c-20.645 20.645-52.84 26.848-69.305 28.691 0.83984-17.203 5.1797-51.465 25.867-72.129 20.766-20.766 53.188-25.066 69.305-25.867-0.83984 16.137-5.1836 48.617-25.867 69.305z"/>
  <path d="m256 51.199c-112.93 0-204.8 91.875-204.8 204.8s91.875 204.8 204.8 204.8 204.8-91.875 204.8-204.8-91.875-204.8-204.8-204.8zm0 389.12c-101.62 0-184.32-82.68-184.32-184.32s82.699-184.32 184.32-184.32 184.32 82.68 184.32 184.32-82.699 184.32-184.32 184.32z"/>
 </g>
</svg>
