<?xml version="1.0" encoding="UTF-8"?>
<svg width="512pt" height="512pt" version="1.1" viewBox="0 0 512 512" xmlns="http://www.w3.org/2000/svg">
 <path d="m486.82 158.86c-18.359-11.582-54.824-16.719-94.824-2.0547-40.734 14.902-64.641 24-73.281 27.344l-124.07-75.441c-10.016-6.0547-22.285-7.082-33.168-2.7812l-14.969 5.9609v-0.003906c-4.3242 1.7266-7.6289 5.3242-8.9844 9.7812-1.3555 4.4531-0.61328 9.2812 2.0156 13.125l66.137 96.496-99.449 44.48-54.824-32.562c-4.0352-2.4258-8.9727-2.8398-13.359-1.1289l-16.344 6.3125c-4.7227 1.8359-8.2344 5.8906-9.375 10.828s0.23438 10.121 3.6719 13.844l48.129 52c9.957 10.812 22.926 18.398 37.23 21.773 14.309 3.375 29.297 2.3906 43.039-2.8281 20.633-7.793 55.832-21.09 95.496-36l-20.801 81.68h0.003906c-1.1602 4.5742-0.15234 9.4258 2.7344 13.156 2.8828 3.7305 7.3242 5.9297 12.039 5.9648 1.457-0.003906 2.9062-0.21094 4.3047-0.61719l19.039-5.4648c8.5898-2.4688 16.008-7.9414 20.906-15.414l80.586-123.04h-0.003906c0.17578-0.35547 0.32031-0.72266 0.44141-1.0977 49.871-18.695 91.039-34.023 102.13-37.855 23.121-8 40.488-29.777 38.711-48.551-1.332-7.707-6.207-14.336-13.16-17.906zm-222.11 219.62c-2.7891 4.2656-7.0195 7.3867-11.918 8.8008l-17.91 5.1367 23.273-91.359c25.008-9.4141 51.07-19.199 76-28.574zm191.29-168.35c-28.336 9.8008-250.02 93.465-317.28 118.87-10.766 4.0859-22.508 4.8516-33.711 2.207-11.207-2.6484-21.367-8.5859-29.168-17.055l-47.449-51.25 14.809-5.9922 58.398 34.719 0.003906 0.003906c2.2344 1.3281 4.9766 1.4922 7.3516 0.42969l112-50.09v0.003906c2.1641-0.96875 3.7891-2.8477 4.4336-5.1328 0.64453-2.2812 0.24219-4.7344-1.0977-6.6914l-71.066-103.75 14.176-5.6484v0.003906c6.2148-2.457 13.223-1.8672 18.938 1.5977l127.44 77.473c2.1289 1.2969 4.7383 1.5273 7.0625 0.625 0.24609-0.097657 24.672-9.6406 76.656-28.648 34.719-12.719 66.215-8.625 80.801 0.56641 4.5273 2.8477 5.7031 5.207 5.7695 5.8008 0.93359 10.191-10.844 26.008-28.066 31.961z" fill="#fff"/>
</svg>
