<?xml version="1.0" encoding="UTF-8"?>
<svg width="512pt" height="512pt" version="1.1" viewBox="0 0 512 512" xmlns="http://www.w3.org/2000/svg">
 <path d="m47.461 227.76h48.762c5.6602 0 10.238 4.5781 10.238 10.238v242.64h82.641v-144.26c0-5.6602 4.5781-10.238 10.238-10.238h113.24c5.6602 0 10.238 4.5781 10.238 10.238v144.26h82.641v-242.64c0-5.6602 4.5781-10.238 10.238-10.238h48.762c-69.5-64.281-139-128.56-208.52-192.82l-208.52 192.82zm358.28-82.098v-76.242h-46.719v33.039zm-67.199-62.16v-24.32c0-5.6602 4.5781-10.238 10.238-10.238h67.199c5.6602 0 10.238 4.5781 10.238 10.238v105.42l70.504 65.199c2.4805 1.8789 4.1016 4.8398 4.1016 8.1992 0 5.6602-4.5781 10.238-10.238 10.238h-64.598v242.64c0 5.6602-4.5781 10.238-10.238 10.238h-319.52c-5.6602 0-10.238-4.5781-10.238-10.238v-242.64h-64.598c-2.7383-0.058593-5.4805-1.1602-7.4805-3.3203-3.8203-4.1406-3.5586-10.578 0.55859-14.398l234.56-216.92c3.8594-3.6211 9.9414-3.6797 13.879-0.039062l75.621 69.938zm-128.92 397.14h92.758v-134h-92.758z" fill="#fff"/>
</svg>
