<?xml version="1.0" encoding="UTF-8"?>
<svg width="512pt" height="512pt" version="1.1" viewBox="0 0 512 512" xmlns="http://www.w3.org/2000/svg">
 <g fill="#fff">
  <path d="m159.12 223.54h83.062c4.2383 0 7.6797-3.4414 7.6797-7.6797s-3.4414-7.6797-7.6797-7.6797h-83.062c-4.2383 0-7.6797 3.4414-7.6797 7.6797s3.4414 7.6797 7.6797 7.6797z"/>
  <path d="m159.12 267.82h83.062c4.2383 0 7.6797-3.4414 7.6797-7.6797s-3.4414-7.6797-7.6797-7.6797h-83.062c-4.2383 0-7.6797 3.4414-7.6797 7.6797s3.4414 7.6797 7.6797 7.6797z"/>
  <path d="m159.12 312.32h83.062c4.2383 0 7.6797-3.4414 7.6797-7.6797s-3.4414-7.6797-7.6797-7.6797h-83.062c-4.2383 0-7.6797 3.4414-7.6797 7.6797s3.4414 7.6797 7.6797 7.6797z"/>
  <path d="m159.12 356.4h83.062c4.2383 0 7.6797-3.4414 7.6797-7.6797s-3.4414-7.6797-7.6797-7.6797h-83.062c-4.2383 0-7.6797 3.4414-7.6797 7.6797s3.4414 7.6797 7.6797 7.6797z"/>
  <path d="m419.32 418.56h-39.359v-179.6c0-3.1406-1.9219-5.9609-4.8203-7.1211l-94.879-38.66v-107.52c0.039063-2.5586-1.2383-4.9805-3.3789-6.3984-2.1211-1.3984-4.8008-1.6797-7.1602-0.71875l-149.5 60.918c-2.8789 1.1797-4.7617 3.9609-4.7617 7.0781v272.02h-22.781c-4.2383 0-7.6797 3.4414-7.6797 7.6797s3.4414 7.6797 7.6797 7.6797h326.64c4.2383 0 7.6797-3.4414 7.6797-7.6797s-3.4414-7.6797-7.6797-7.6797zm-154.42-220.16v217.4h-134.08v-264l134.08-54.52zm99.703 217.4h-84.34v-205.88l84.32 34.301z"/>
 </g>
</svg>
