<?xml version="1.0" encoding="UTF-8"?>
<svg width="512pt" height="512pt" version="1.1" viewBox="0 0 512 512" xmlns="http://www.w3.org/2000/svg">
 <g fill="#fff">
  <path d="m256 58.367c-109.57 0-197.63 89.09-197.63 197.63s89.09 198.66 197.63 198.66 197.63-89.09 197.63-197.63c0-108.54-88.066-198.66-197.63-198.66zm0 370.69c-95.23 0-172.03-76.801-172.03-172.03 0-95.23 77.824-173.05 172.03-173.05s172.03 77.824 172.03 172.03-76.801 173.05-172.03 173.05z"/>
  <path d="m343.04 243.71h-174.08c-7.168 0-12.289 6.1445-12.289 12.289s6.1445 12.289 12.289 12.289h174.08c7.168 0 12.289-6.1445 12.289-12.289s-5.1211-12.289-12.289-12.289z"/>
 </g>
</svg>
