<?xml version="1.0" encoding="UTF-8"?>
<svg width="512pt" height="512pt" version="1.1" viewBox="0 0 512 512" xmlns="http://www.w3.org/2000/svg">
 <g fill="#fff">
  <path d="m37.02 230.76c7.4805 4.0938 16.328 4.8906 24.422 2.2031-2.457 8.1562-2.0625 16.91 1.1094 24.816s8.9375 14.5 16.348 18.703c-7.707 4.4297-13.602 11.438-16.648 19.785-3.0469 8.3516-3.0469 17.512 0 25.859 3.0469 8.3516 8.9414 15.359 16.648 19.789-7.7031 4.4375-13.598 11.453-16.641 19.805-3.0469 8.3555-3.0469 17.52 0 25.871 3.043 8.3555 8.9375 15.371 16.641 19.809-9.707 5.5742-16.445 15.168-18.395 26.191-1.9492 11.023 1.0938 22.344 8.3008 30.906 7.207 8.5664 17.844 13.496 29.039 13.457h316.31c11.195 0.039063 21.832-4.8906 29.039-13.457 7.207-8.5625 10.25-19.883 8.3008-30.906-1.9492-11.023-8.6875-20.617-18.395-26.191 7.7031-4.4375 13.598-11.453 16.641-19.809 3.0469-8.3516 3.0469-17.516 0-25.871-3.043-8.3516-8.9375-15.367-16.641-19.805 7.707-4.4297 13.602-11.438 16.648-19.789 3.0469-8.3477 3.0469-17.508 0-25.859-3.0469-8.3477-8.9414-15.355-16.648-19.785 11.691-6.75 18.91-19.215 18.941-32.719 0.0625-3.6719-0.4375-7.332-1.4844-10.852 8.1133 2.7773 17.023 1.9961 24.527-2.1523 9.6953-5.1836 15.957-15.082 16.492-26.062 0.53516-10.984-4.7344-21.441-13.883-27.543l-208.23-138.75c-3.9805-2.6758-8.668-4.1094-13.465-4.1094s-9.4844 1.4336-13.465 4.1094l-208.13 138.75c-9.1445 6.1016-14.414 16.559-13.879 27.543 0.53125 10.98 6.793 20.879 16.492 26.062zm226.76-183.86 208.13 138.75c6.2578 4.168 9.8125 11.359 9.3281 18.863s-4.9336 14.18-11.676 17.512c-6.7383 3.332-14.742 2.8164-21-1.3555l-66.559-44.289c-1.125-0.84375-2.5469-1.1914-3.9375-0.95312-1.3867 0.23437-2.6133 1.0312-3.3984 2.1992-0.78125 1.1719-1.0469 2.6094-0.73438 3.9844 0.3125 1.3711 1.1758 2.5547 2.3867 3.2695l31.129 20.48h-200.45c-2.8242 0-5.1172 2.293-5.1172 5.1211s2.293 5.1172 5.1172 5.1172h181.35c-7.668 7.1406-12.027 17.145-12.027 27.625 0 10.477 4.3594 20.484 12.027 27.621h-63.59c-1.4102-6.8203-5.1289-12.949-10.531-17.348-5.3984-4.4023-12.148-6.8086-19.113-6.8203h-78.234c-7.0391 0.035156-13.844 2.5156-19.254 7.0156-5.4102 4.5039-9.082 10.75-10.391 17.664h-19.199c-2.8281 0-5.1211 2.293-5.1211 5.1211s2.293 5.1211 5.1211 5.1211h18.586v54.938h-62.977c7.668-7.1289 12.023-17.129 12.023-27.598s-4.3555-20.469-12.023-27.598h22.988c2.8281 0 5.1211-2.293 5.1211-5.1211s-2.293-5.1172-5.1211-5.1172h-22.988c7.668-7.1406 12.027-17.145 12.027-27.625 0-10.477-4.3594-20.484-12.027-27.621h14.59c2.8281 0 5.1211-2.293 5.1211-5.1211s-2.293-5.1172-5.1211-5.1172h-33.789l149.61-99.738c1.1836-0.76562 2.707-0.76562 3.8906 0l56.062 37.477c2.3633 1.5703 5.5508 0.92969 7.1172-1.4336 1.5703-2.3594 0.92969-5.5469-1.4336-7.1172l-56.062-37.527c-4.6445-3.1211-10.715-3.1211-15.359 0l-184.83 123.39c-4.6445 3.0977-10.328 4.2188-15.801 3.125-5.4727-1.0938-10.289-4.3164-13.383-8.9609-3.0977-4.6445-4.2227-10.328-3.125-15.801 1.0938-5.4727 4.3164-10.289 8.9609-13.383l208.13-138.75c4.7148-3.1289 10.848-3.1289 15.562 0zm56.32 401.56c-2.8281 0-5.1211 2.293-5.1211 5.1211v13.875h-118.12v-190.26c0.015625-5.3047 2.1289-10.387 5.8789-14.141 3.75-3.75 8.8359-5.8633 14.141-5.8789h78.234c5.3047 0.015625 10.391 2.1289 14.141 5.8789 3.75 3.7539 5.8633 8.8359 5.8789 14.141v147.77c0 2.8281 2.293 5.1172 5.1211 5.1172 2.8242 0 5.1172-2.2891 5.1172-5.1172v-12.699h62.977c-7.668 7.1289-12.023 17.129-12.023 27.598s4.3555 20.469 12.023 27.598h-62.977v-13.875c0-1.3594-0.53906-2.6602-1.5-3.6211-0.95703-0.96094-2.2617-1.5-3.6172-1.5zm-196.45 18.996c7.668-7.1289 12.023-17.129 12.023-27.598s-4.3555-20.469-12.023-27.598h62.977v55.195zm264.7-185.86c-7.668 7.1289-12.023 17.125-12.023 27.594 0 10.473 4.3555 20.469 12.023 27.598h-62.977v-55.191zm0 65.434c-7.668 7.1367-12.027 17.145-12.027 27.621s4.3594 20.484 12.027 27.621h-62.977v-55.5zm-264.7 0h62.977v54.988h-62.977c7.668-7.1406 12.027-17.145 12.027-27.625 0-10.477-4.3594-20.484-12.027-27.621zm-25.602-130.92v-0.003907c7.332 0 14.367 2.9141 19.551 8.1016 5.1836 5.1836 8.0977 12.215 8.0977 19.547 0 7.3359-2.9141 14.367-8.0977 19.551-5.1836 5.1875-12.219 8.0977-19.551 8.0977s-14.363-2.9102-19.551-8.0977c-5.1836-5.1836-8.0977-12.215-8.0977-19.551-0.066407-7.3398 2.7891-14.406 7.9375-19.641 5.1484-5.2344 12.164-8.207 19.508-8.2617zm0 65.484c7.3164 0.011719 14.328 2.9297 19.492 8.1133 5.168 5.1797 8.0625 12.199 8.0547 19.516-0.007812 7.3164-2.9219 14.328-8.1016 19.5-5.1758 5.168-12.195 8.0664-19.512 8.0625-7.3164-0.003907-14.332-2.9141-19.504-8.0898-5.1719-5.1719-8.0781-12.191-8.0781-19.508 0.015624-7.2852 2.9062-14.277 8.0469-19.445 5.1367-5.168 12.109-8.0977 19.398-8.1484zm0 65.434c7.3359 0 14.371 2.9141 19.559 8.1016 5.1836 5.1914 8.0938 12.227 8.0898 19.562-0.003906 7.3359-2.9219 14.367-8.1172 19.551-5.1914 5.1836-12.23 8.0898-19.562 8.0781-7.3359-0.007813-14.367-2.9297-19.547-8.125s-8.082-12.238-8.0703-19.574c-0.054688-7.332 2.8086-14.387 7.9531-19.609 5.1484-5.2227 12.16-8.1875 19.492-8.2422zm0 65.484c7.3164 0.011719 14.328 2.9297 19.492 8.1133 5.168 5.1797 8.0625 12.199 8.0547 19.516-0.007812 7.3164-2.9219 14.332-8.1016 19.5-5.1758 5.168-12.195 8.0664-19.512 8.0625-7.3164-0.003907-14.332-2.9141-19.504-8.0898-5.1719-5.1719-8.0781-12.191-8.0781-19.508-0.066407-7.3359 2.7891-14.398 7.9375-19.625 5.1523-5.2266 12.172-8.1836 19.508-8.2266zm316.11 54.938c-7.3164-0.015625-14.328-2.9336-19.492-8.1133-5.1641-5.1836-8.0625-12.203-8.0547-19.52 0.011719-7.3164 2.9258-14.328 8.1016-19.496 5.1797-5.168 12.199-8.0703 19.516-8.0664 7.3164 0.003906 14.328 2.9141 19.5 8.0898 5.1719 5.1758 8.0781 12.191 8.0781 19.508-0.011719 7.3242-2.9336 14.344-8.1172 19.516-5.1836 5.1758-12.207 8.082-19.531 8.082zm0-65.434c-7.332 0-14.363-2.9141-19.551-8.0977-5.1836-5.1875-8.0977-12.219-8.0977-19.551s2.9141-14.367 8.0977-19.551c5.1875-5.1836 12.219-8.0977 19.551-8.0977s14.367 2.9141 19.551 8.0977c5.1836 5.1836 8.0977 12.219 8.0977 19.551s-2.9141 14.363-8.0977 19.551c-5.1836 5.1836-12.219 8.0977-19.551 8.0977zm0-65.484c-7.3164-0.015624-14.328-2.9336-19.492-8.1133-5.1641-5.1836-8.0625-12.203-8.0547-19.52 0.011719-7.3164 2.9258-14.328 8.1016-19.496 5.1797-5.168 12.199-8.0703 19.516-8.0664 7.3164 0.003906 14.328 2.9141 19.5 8.0898 5.1719 5.1758 8.0781 12.191 8.0781 19.508-0.011719 7.3242-2.9336 14.344-8.1172 19.516-5.1836 5.1758-12.207 8.082-19.531 8.082zm0-65.434c-7.3359 0-14.371-2.918-19.555-8.1055-5.1875-5.1875-8.0977-12.227-8.0938-19.562 0.003907-7.3359 2.9258-14.367 8.1172-19.551 5.1914-5.1797 12.23-8.0859 19.566-8.0781 7.3359 0.007812 14.367 2.9336 19.547 8.1289 5.1797 5.1953 8.082 12.234 8.0664 19.57 0.054687 7.3672-2.8359 14.453-8.0234 19.684-5.1914 5.2266-12.258 8.168-19.625 8.168z"/>
  <path d="m356.04 158.98-18.121-12.238c-1.1367-0.75391-2.5234-1.0234-3.8555-0.75781-1.3359 0.26953-2.5078 1.0586-3.2617 2.1914-1.5703 2.3633-0.92969 5.5469 1.4336 7.1172l18.379 12.238c0.83203 0.55859 1.8125 0.86328 2.8164 0.87109 2.2852 0.039062 4.3242-1.4414 4.9883-3.6289 0.66797-2.1875-0.19922-4.5547-2.1211-5.793z"/>
  <path d="m211.3 367.97c0 8.3594 4.4609 16.086 11.699 20.266 7.2422 4.1797 16.16 4.1797 23.398 0 7.2422-4.1797 11.699-11.906 11.699-20.266 0-2.8242-2.2891-5.1172-5.1172-5.1172s-5.1211 2.293-5.1211 5.1172c0 5.3242-3.207 10.121-8.125 12.16-4.9141 2.0352-10.574 0.91016-14.34-2.8555-3.7617-3.7617-4.8867-9.4219-2.8516-14.34 2.0391-4.9141 6.8359-8.1211 12.156-8.1211 1.3906 0.015625 2.7734 0.24219 4.0977 0.66406 2.6484 0.75781 5.418-0.71484 6.2734-3.3359 0.85156-2.6172-0.51562-5.4414-3.0977-6.3906-7.1328-2.375-14.969-1.168-21.059 3.2344-6.0898 4.4062-9.6836 11.473-9.6641 18.984z"/>
  <path d="m179.2 205.62h-13.207c-2.8281 0-5.1211 2.2891-5.1211 5.1172s2.293 5.1211 5.1211 5.1211h13.207c2.8281 0 5.1211-2.293 5.1211-5.1211s-2.293-5.1172-5.1211-5.1172z"/>
 </g>
</svg>
