<?xml version="1.0" encoding="UTF-8"?>
<svg width="512pt" height="512pt" version="1.1" viewBox="0 0 512 512" xmlns="http://www.w3.org/2000/svg">
 <g fill="#fff">
  <path d="m117.14 34.445c1.3516-8.7305-4.6328-16.906-13.367-18.258-8.7305-1.3516-16.906 4.6328-18.258 13.367l-69.332 448c-1.3516 8.7305 4.6328 16.906 13.363 18.258 8.7344 1.3516 16.906-4.6328 18.258-13.367z"/>
  <path d="m426.48 29.555c-1.3516-8.7344-9.5273-14.719-18.258-13.367-8.7344 1.3516-14.719 9.5273-13.363 18.258l69.332 448c1.3516 8.7344 9.5234 14.719 18.258 13.367 8.7344-1.3516 14.715-9.5273 13.363-18.258z"/>
  <path d="m240 480c0 8.8359 7.1602 16 16 16 8.8359 0 16-7.1641 16-16v-56c0-8.8359-7.1641-16-16-16-8.8398 0-16 7.1641-16 16z"/>
  <path d="m240 312c0 8.8359 7.1602 16 16 16 8.8359 0 16-7.1641 16-16v-112c0-8.8359-7.1641-16-16-16-8.8398 0-16 7.1641-16 16z"/>
  <path d="m240 88c0 8.8359 7.1602 16 16 16 8.8359 0 16-7.1641 16-16v-56c0-8.8359-7.1641-16-16-16-8.8398 0-16 7.1641-16 16z"/>
 </g>
</svg>
