<?xml version="1.0" encoding="UTF-8"?>
<svg width="512pt" height="512pt" version="1.1" viewBox="0 0 512 512" xmlns="http://www.w3.org/2000/svg">
 <g fill="#fff">
  <path d="m256 486.6c127.01 0 230.2-103.2 230.2-230.2 0-127.01-103.2-230.2-230.2-230.2s-230.6 103.2-230.6 230.2c0 127.01 103.59 230.2 230.6 230.2zm0-428.65c109.15 0 198.05 88.906 198.05 198.05 0 109.15-88.902 198.05-198.05 198.05s-198.05-88.902-198.05-198.05 88.902-198.05 198.05-198.05z"/>
  <path d="m217.5 357.61c-9.1289 0-16.273 7.1445-16.273 16.273s7.1445 16.273 16.273 16.273h106.77c9.1289 0 16.273-7.1445 16.273-16.273s-7.1445-16.273-16.273-16.273h-37.309v-143.28c0-9.1289-7.1445-16.273-16.273-16.273h-53.184c-9.1289 0-16.273 7.1445-16.273 16.273 0 9.1289 7.1445 16.273 16.273 16.273h37.309v127.01z"/>
  <path d="m275.05 144.87c0 14.469-11.727 26.195-26.195 26.195s-26.195-11.727-26.195-26.195c0-14.465 11.727-26.195 26.195-26.195s26.195 11.73 26.195 26.195"/>
 </g>
</svg>
