<?xml version="1.0" encoding="UTF-8"?>
<svg width="512pt" height="512pt" version="1.1" viewBox="0 0 512 512" xmlns="http://www.w3.org/2000/svg">
 <g fill="#fff">
  <path d="m41.676 123.83h17.859l41.676 348.08c0.79297 8.3359 7.9375 14.289 16.273 14.289h277.04c8.3359 0 15.082-5.9531 16.273-14.289l41.676-348.08h17.859c9.1289 0 16.273-7.1445 16.273-16.273s-7.1445-16.273-16.273-16.273h-124.63v-49.609c0-9.1289-7.1445-16.273-16.273-16.273h-146.85c-9.1289 0-16.273 7.1445-16.273 16.273v49.609h-124.63c-9.1289 0-16.273 7.1445-16.273 16.273 0.003906 9.1289 7.543 16.273 16.277 16.273zm157.17-65.883h114.31l-0.003906 33.336h-114.3zm220.68 65.883-39.293 330.22h-248.46l-39.293-330.22z"/>
  <path d="m202.02 404.44c9.1289 0 16.273-7.1445 16.273-16.273l-0.003906-194.88c0-9.1289-7.1445-16.273-16.273-16.273-9.1289 0-16.273 7.1445-16.273 16.273v194.88c0.003906 9.1289 7.1484 16.273 16.277 16.273z"/>
  <path d="m309.98 404.44c9.1289 0 16.273-7.1445 16.273-16.273v-194.88c0-9.1289-7.1445-16.273-16.273-16.273-9.125 0-16.27 7.1445-16.27 16.273v194.88c0 9.1289 7.5391 16.273 16.27 16.273z"/>
 </g>
</svg>
