<?xml version="1.0" encoding="UTF-8" standalone="no"?>
<svg
   width="512pt"
   height="512pt"
   version="1.1"
   viewBox="0 0 512 512"
   id="svg64"
   sodipodi:docname="right.svg"
   inkscape:version="1.2 (dc2aeda, 2022-05-15)"
   xmlns:inkscape="http://www.inkscape.org/namespaces/inkscape"
   xmlns:sodipodi="http://sodipodi.sourceforge.net/DTD/sodipodi-0.dtd"
   xmlns="http://www.w3.org/2000/svg"
   xmlns:svg="http://www.w3.org/2000/svg">
  <defs
     id="defs68" />
  <sodipodi:namedview
     id="namedview66"
     pagecolor="#ffffff"
     bordercolor="#000000"
     borderopacity="0.25"
     inkscape:showpageshadow="2"
     inkscape:pageopacity="0.0"
     inkscape:pagecheckerboard="0"
     inkscape:deskcolor="#d1d1d1"
     inkscape:document-units="pt"
     showgrid="false"
     inkscape:zoom="0.34570313"
     inkscape:cx="341.33333"
     inkscape:cy="341.33333"
     inkscape:window-width="1214"
     inkscape:window-height="417"
     inkscape:window-x="0"
     inkscape:window-y="25"
     inkscape:window-maximized="0"
     inkscape:current-layer="svg64" />
  <g
     fill="#ffffff"
     id="g62"
     transform="rotate(180,256.2,256.2)"
     style="fill:#ffffff">
    <path
       d="M 256,486.6 C 383.01,486.6 486.6,383.4 486.6,256 486.6,128.59 383.4,25.8 256,25.8 128.59,25.8 25.8,129 25.8,256 25.8,383 129,486.6 256,486.6 Z m 0,-428.65 c 109.15,0 198.05,88.906 198.05,198.05 0,109.15 -88.902,198.05 -198.05,198.05 C 146.852,454.05 57.95,365.148 57.95,256 57.95,146.852 146.852,57.95 256,57.95 Z"
       id="path58"
       style="fill:#ffffff" />
    <path
       d="m 277.83,371.1 c 3.1758,3.1758 7.1445,4.7617 11.512,4.7617 3.9688,0 8.3359,-1.5859 11.512,-4.7617 6.3516,-6.3516 6.3516,-16.668 0,-23.02 l -93.273,-93.273 93.27,-93.27 c 6.3516,-6.3516 6.3516,-16.668 0,-23.02 -6.3516,-6.3516 -16.668,-6.3516 -23.02,0 l -104.78,104.78 c -3.1758,3.1758 -4.7617,7.1445 -4.7617,11.512 0,4.3675 1.5859,8.3359 4.7617,11.512 z"
       id="path60"
       style="fill:#ffffff" />
  </g>
</svg>
